<?xml version="1.0" encoding="UTF-8" standalone="no"?>
<svg width="1000" height="600" viewBox="0 0 1000 600" xmlns="http://www.w3.org/2000/svg">
  <defs>
    <linearGradient id="gateway-gradient" x1="0%" y1="0%" x2="100%" y2="100%">
      <stop offset="0%" stop-color="#2563eb" />
      <stop offset="100%" stop-color="#3b82f6" />
    </linearGradient>
    <linearGradient id="server-gradient" x1="0%" y1="0%" x2="100%" y2="100%">
      <stop offset="0%" stop-color="#059669" />
      <stop offset="100%" stop-color="#10b981" />
    </linearGradient>
    <linearGradient id="client-gradient" x1="0%" y1="0%" x2="100%" y2="100%">
      <stop offset="0%" stop-color="#7c3aed" />
      <stop offset="100%" stop-color="#8b5cf6" />
    </linearGradient>
    <linearGradient id="api-gradient" x1="0%" y1="0%" x2="100%" y2="100%">
      <stop offset="0%" stop-color="#dc2626" />
      <stop offset="100%" stop-color="#ef4444" />
    </linearGradient>
    <filter id="shadow" x="-20%" y="-20%" width="140%" height="140%">
      <feDropShadow dx="3" dy="3" stdDeviation="5" flood-opacity="0.3"/>
    </filter>
    <marker id="arrowhead" markerWidth="10" markerHeight="7" refX="9" refY="3.5" orient="auto">
      <polygon points="0 0, 10 3.5, 0 7" fill="#64748b"/>
    </marker>
  </defs>
  
  <!-- 背景 -->
  <rect width="1000" height="600" fill="#f8fafc" rx="10" ry="10" />
  
  <!-- MCP客户端区域 -->
  <g transform="translate(80, 200)">
    <rect width="160" height="80" rx="10" ry="10" fill="url(#client-gradient)" filter="url(#shadow)" />
    <text x="80" y="45" text-anchor="middle" fill="white" font-family="Arial, sans-serif" font-weight="bold">LLM客户端</text>
    <text x="80" y="65" text-anchor="middle" fill="white" font-family="Arial, sans-serif" font-size="12">(Claude, GPT-4等)</text>
  </g>
  
  <!-- MCP网关模块 -->
  <g transform="translate(350, 140)">
    <rect width="240" height="200" rx="10" ry="10" fill="url(#gateway-gradient)" filter="url(#shadow)" />
    <text x="120" y="35" text-anchor="middle" fill="white" font-family="Arial, sans-serif" font-weight="bold" font-size="16">MCP网关</text>
    
    <!-- 网关内部模块 -->
    <rect x="30" y="50" width="180" height="30" rx="5" ry="5" fill="white" fill-opacity="0.9" />
    <text x="120" y="70" text-anchor="middle" fill="#2563eb" font-family="Arial, sans-serif" font-size="12">认证与权限控制</text>
    
    <rect x="30" y="90" width="180" height="30" rx="5" ry="5" fill="white" fill-opacity="0.9" />
    <text x="120" y="110" text-anchor="middle" fill="#2563eb" font-family="Arial, sans-serif" font-size="12">流量调度与负载均衡</text>
    
    <rect x="30" y="130" width="180" height="30" rx="5" ry="5" fill="white" fill-opacity="0.9" />
    <text x="120" y="150" text-anchor="middle" fill="#2563eb" font-family="Arial, sans-serif" font-size="12">安全防护与审计</text>
    
    <rect x="30" y="170" width="180" height="30" rx="5" ry="5" fill="white" fill-opacity="0.9" />
    <text x="120" y="190" text-anchor="middle" fill="#2563eb" font-family="Arial, sans-serif" font-size="12">工具选择与编排</text>
  </g>
  
  <!-- MCP服务器模块 (多个) -->
  <g transform="translate(650, 50)">
    <rect width="160" height="80" rx="10" ry="10" fill="url(#server-gradient)" filter="url(#shadow)" />
    <text x="80" y="40" text-anchor="middle" fill="white" font-family="Arial, sans-serif" font-weight="bold" font-size="14">MCP服务器 1</text>
    <text x="80" y="60" text-anchor="middle" fill="white" font-family="Arial, sans-serif" font-size="12">文件操作工具</text>
  </g>
  
  <g transform="translate(650, 200)">
    <rect width="160" height="80" rx="10" ry="10" fill="url(#server-gradient)" filter="url(#shadow)" />
    <text x="80" y="40" text-anchor="middle" fill="white" font-family="Arial, sans-serif" font-weight="bold" font-size="14">MCP服务器 2</text>
    <text x="80" y="60" text-anchor="middle" fill="white" font-family="Arial, sans-serif" font-size="12">网络搜索工具</text>
  </g>
  
  <g transform="translate(650, 350)">
    <rect width="160" height="80" rx="10" ry="10" fill="url(#server-gradient)" filter="url(#shadow)" />
    <text x="80" y="40" text-anchor="middle" fill="white" font-family="Arial, sans-serif" font-weight="bold" font-size="14">MCP服务器 3</text>
    <text x="80" y="60" text-anchor="middle" fill="white" font-family="Arial, sans-serif" font-size="12">代码执行工具</text>
  </g>
  
  <!-- 外部API/工具区域 -->
  <g transform="translate(850, 50)">
    <rect width="120" height="380" rx="10" ry="10" fill="#e2e8f0" stroke="#cbd5e1" stroke-width="2" filter="url(#shadow)" />
    <text x="60" y="30" text-anchor="middle" fill="#1e293b" font-family="Arial, sans-serif" font-weight="bold" font-size="14">外部服务/API/工具</text>

    <!-- 各种外部服务 -->
    <g transform="translate(20, 60)">
      <rect width="80" height="30" rx="5" ry="5" fill="url(#api-gradient)" filter="url(#shadow)" />
      <text x="40" y="20" text-anchor="middle" fill="white" font-family="Arial, sans-serif" font-size="12">SaaS服务</text>
    </g>
    
    <g transform="translate(20, 110)">
      <rect width="80" height="30" rx="5" ry="5" fill="url(#api-gradient)" filter="url(#shadow)" />
      <text x="40" y="20" text-anchor="middle" fill="white" font-family="Arial, sans-serif" font-size="12">数据库</text>
    </g>
    
    <g transform="translate(20, 160)">
      <rect width="80" height="30" rx="5" ry="5" fill="url(#api-gradient)" filter="url(#shadow)" />
      <text x="40" y="20" text-anchor="middle" fill="white" font-family="Arial, sans-serif" font-size="12">云服务</text>
    </g>
  </g>
  
  <!-- 连接线 -->
  <!-- 客户端到网关 -->
  <path d="M240,240 L350,240" fill="none" stroke="#64748b" stroke-width="2" marker-end="url(#arrowhead)" />
  
  <!-- 网关到各服务器 -->
  <path d="M590,170 C610,170 630,90 650,90" fill="none" stroke="#64748b" stroke-width="2" marker-end="url(#arrowhead)" />
  <path d="M590,240 L650,240" fill="none" stroke="#64748b" stroke-width="2" marker-end="url(#arrowhead)" />
  <path d="M590,270 C610,270 630,390 650,390" fill="none" stroke="#64748b" stroke-width="2" marker-end="url(#arrowhead)" />
  
  <!-- 服务器到外部API/工具 -->
  <path d="M810,90 L850,95" fill="none" stroke="#64748b" stroke-width="2" marker-end="url(#arrowhead)" />
  <path d="M810,240 L850,150" fill="none" stroke="#64748b" stroke-width="2" marker-end="url(#arrowhead)" />
  <path d="M810,390 L850,210" fill="none" stroke="#64748b" stroke-width="2" marker-end="url(#arrowhead)" />
  
  <!-- 说明文本 -->
  <text x="500" y="550" text-anchor="middle" fill="#64748b" font-family="Arial, sans-serif" font-size="14">MCP架构示意图：从左到右的工具调用流程</text>
  
  <!-- 箭头指示文本 -->
  <text x="300" y="225" text-anchor="middle" fill="#64748b" font-family="Arial, sans-serif" font-size="12">请求</text>
  <text x="620" y="150" text-anchor="middle" fill="#64748b" font-family="Arial, sans-serif" font-size="12">分发</text>
  <text x="830" y="180" text-anchor="middle" fill="#64748b" font-family="Arial, sans-serif" font-size="12">执行</text>
</svg> 